<svg width="1440" height="158" viewBox="0 0 1440 158" fill="none" xmlns="http://www.w3.org/2000/svg">
<g opacity="0.3">
<path d="M146.5 13C83.7 -14.6 13 12 -6.5 27V161.5L1462 170V102C1452.5 94.8334 1388.7 70.2001 1321.5 29.0001C1237.5 -22.4999 1159.5 32.5001 1088 73.5001C1005 123.5 927 126.197 884 110C772.5 68.0001 734.5 72.5001 631 95.0001C535.4 122.2 407.5 130.5 348.5 102C298 83.8334 209.3 40.6 146.5 13Z" fill="#F1C653"/>
<path d="M146.5 13C83.7 -14.6 13 12 -6.5 27V161.5L1462 170V102C1452.5 94.8334 1388.7 70.2001 1321.5 29.0001C1237.5 -22.4999 1159.5 32.5001 1088 73.5001C1005 123.5 927 126.197 884 110C772.5 68.0001 734.5 72.5001 631 95.0001C535.4 122.2 407.5 130.5 348.5 102C298 83.8334 209.3 40.6 146.5 13Z" fill="url(#paint0_linear)"/>
</g>
<defs>
<linearGradient id="paint0_linear" x1="727.75" y1="0.995361" x2="727.75" y2="170" gradientUnits="userSpaceOnUse">
<stop stop-color="white"/>
<stop offset="1" stop-color="white" stop-opacity="0"/>
</linearGradient>
</defs>
</svg>
